<mxfile modified="2022-02-02T22:55:50.152Z" host="app.diagrams.net" agent="5.0 (Windows NT 10.0; Win64; x64) AppleWebKit/537.36 (KHTML, like Gecko) Chrome/97.0.4692.99 Safari/537.36" etag="YZZIBE4o4msKiXieHwBs" version="16.4.7" type="github">
  <diagram id="f106602c-feb2-e66a-4537-3a34d633f6aa" name="Page-1">
    <mxGraphModel dx="1580" dy="847" grid="1" gridSize="10" guides="1" tooltips="1" connect="1" arrows="1" fold="1" page="1" pageScale="1" pageWidth="1169" pageHeight="827" background="none" math="0" shadow="0">
      <root>
        <mxCell id="0" />
        <mxCell id="1" parent="0" />
        <mxCell id="In5vsR27y8G3yN-AkZjQ-1094" value="" style="group" vertex="1" connectable="0" parent="1">
          <mxGeometry width="2068" height="970" as="geometry" />
        </mxCell>
        <mxCell id="In5vsR27y8G3yN-AkZjQ-1089" value="" style="edgeStyle=orthogonalEdgeStyle;rounded=0;elbow=vertical;html=1;labelBackgroundColor=none;startFill=1;startSize=4;endArrow=none;endFill=0;endSize=4;jettySize=auto;orthogonalLoop=1;strokeColor=#4284F3;strokeWidth=2;fontSize=12;fontColor=#000000;align=left;dashed=0;" edge="1" parent="In5vsR27y8G3yN-AkZjQ-1094">
          <mxGeometry relative="1" as="geometry">
            <Array as="points">
              <mxPoint x="1251" y="440" />
              <mxPoint x="1250" y="531" />
            </Array>
            <mxPoint x="1251" y="300" as="sourcePoint" />
            <mxPoint x="1250" y="540" as="targetPoint" />
          </mxGeometry>
        </mxCell>
        <mxCell id="14" value="&lt;b&gt;vEZMERAL INFRASTRUCTURE&lt;/b&gt;" style="fillColor=#F6F6F6;strokeColor=none;shadow=0;gradientColor=none;fontSize=14;align=left;spacing=10;fontColor=#717171;9E9E9E;verticalAlign=top;spacingTop=-4;fontStyle=0;spacingLeft=40;html=1;" parent="In5vsR27y8G3yN-AkZjQ-1094" vertex="1">
          <mxGeometry x="370" y="140" width="1600" height="830" as="geometry" />
        </mxCell>
        <mxCell id="2mOgIgbufrFKnN0tF16E-1092" value="" style="fillColor=#FFF4C3;strokeColor=none;shadow=0;gradientColor=none;fontSize=14;align=left;spacing=10;fontColor=#717171;9E9E9E;verticalAlign=top;spacingTop=-4;fontStyle=0;spacingLeft=40;html=1;" parent="In5vsR27y8G3yN-AkZjQ-1094" vertex="1">
          <mxGeometry x="399" y="349" width="691" height="171" as="geometry" />
        </mxCell>
        <mxCell id="2mOgIgbufrFKnN0tF16E-1043" value="&lt;div&gt;&lt;font color=&quot;#330000&quot;&gt;From ALF workspace&amp;nbsp;&lt;/font&gt;&lt;/div&gt;&lt;div&gt;&lt;span&gt;&lt;font color=&quot;#330000&quot;&gt;start, run,&amp;nbsp;&lt;/font&gt;&lt;/span&gt;&lt;/div&gt;&lt;font color=&quot;#330000&quot;&gt;mstsc &#39;v: 10.40.5.xxx&lt;/font&gt;&lt;div&gt;&lt;span&gt;&lt;font color=&quot;#330000&quot;&gt;&amp;nbsp;&lt;/font&gt;&lt;/span&gt;&lt;br&gt;&lt;/div&gt;" style="strokeColor=#dddddd;fillColor=#ffffff;shadow=1;strokeWidth=1;rounded=1;absoluteArcSize=1;arcSize=2;fontSize=11;fontColor=#9E9E9E;align=center;html=1;" parent="In5vsR27y8G3yN-AkZjQ-1094" vertex="1">
          <mxGeometry x="510" y="230.5" width="180" height="83" as="geometry" />
        </mxCell>
        <mxCell id="In5vsR27y8G3yN-AkZjQ-999" value="&lt;div&gt;&lt;font color=&quot;#330000&quot;&gt;console.cloudcoe.com&amp;nbsp;&lt;/font&gt;&lt;/div&gt;&lt;div&gt;&lt;font color=&quot;#330000&quot;&gt;---&lt;/font&gt;&lt;/div&gt;&lt;div&gt;&lt;font color=&quot;#330000&quot;&gt;ALF MGMT NETWORK&amp;nbsp;&lt;/font&gt;&lt;/div&gt;&lt;div&gt;&lt;font color=&quot;#330000&quot;&gt;10.40.5.xxx /16&amp;nbsp;&lt;/font&gt;&lt;/div&gt;&lt;div&gt;&lt;font color=&quot;#330000&quot;&gt;Gateway 10.40.31.254&amp;nbsp;&lt;/font&gt;&lt;/div&gt;&lt;div&gt;&lt;font color=&quot;#330000&quot;&gt;---&lt;/font&gt;&lt;/div&gt;&lt;div&gt;&lt;font color=&quot;#330000&quot;&gt;10.41.0.252 /24&amp;nbsp;&lt;/font&gt;&lt;/div&gt;&lt;div&gt;&lt;font color=&quot;#330000&quot;&gt;Gateway 10.41.0.1&amp;nbsp;&lt;/font&gt;&lt;/div&gt;" style="strokeColor=#dddddd;fillColor=#ffffff;shadow=1;strokeWidth=1;rounded=1;absoluteArcSize=1;arcSize=2;fontSize=11;fontColor=#9E9E9E;align=left;html=1;" vertex="1" parent="In5vsR27y8G3yN-AkZjQ-1094">
          <mxGeometry x="810" y="214" width="130" height="116" as="geometry" />
        </mxCell>
        <mxCell id="2mOgIgbufrFKnN0tF16E-1082" style="edgeStyle=orthogonalEdgeStyle;rounded=0;elbow=vertical;html=1;labelBackgroundColor=none;startFill=1;startSize=4;endArrow=blockThin;endFill=1;endSize=4;jettySize=auto;orthogonalLoop=1;strokeColor=#4284F3;strokeWidth=2;fontSize=12;fontColor=#000000;align=left;dashed=0;exitX=1;exitY=0.5;exitDx=0;exitDy=0;entryX=0;entryY=0.5;entryDx=0;entryDy=0;" parent="In5vsR27y8G3yN-AkZjQ-1094" target="In5vsR27y8G3yN-AkZjQ-999" edge="1" source="2mOgIgbufrFKnN0tF16E-1043">
          <mxGeometry relative="1" as="geometry">
            <Array as="points">
              <mxPoint x="720" y="272" />
              <mxPoint x="720" y="272" />
            </Array>
            <mxPoint x="600" y="295" as="sourcePoint" />
            <mxPoint x="665" y="174.5" as="targetPoint" />
          </mxGeometry>
        </mxCell>
        <mxCell id="In5vsR27y8G3yN-AkZjQ-1006" value="&lt;div&gt;&lt;font color=&quot;#330000&quot;&gt;ad2019.cloudcoe.com&amp;nbsp;&lt;/font&gt;&lt;/div&gt;&lt;div&gt;&lt;font color=&quot;#330000&quot;&gt;---&lt;/font&gt;&lt;/div&gt;&lt;div&gt;&lt;font color=&quot;#330000&quot;&gt;ACTIVE DIRECTORY&lt;/font&gt;&lt;/div&gt;&lt;div&gt;&lt;font color=&quot;#330000&quot;&gt;---&lt;/font&gt;&lt;span style=&quot;color: rgb(51 , 0 , 0)&quot;&gt;&amp;nbsp;&lt;/span&gt;&lt;/div&gt;&lt;div&gt;&lt;span style=&quot;color: rgb(51 , 0 , 0)&quot;&gt;10.41.0.252 /24&amp;nbsp;&lt;/span&gt;&lt;br&gt;&lt;/div&gt;&lt;div&gt;&lt;font color=&quot;#330000&quot;&gt;Gateway 10.41.0.1&amp;nbsp;&lt;/font&gt;&lt;/div&gt;" style="strokeColor=#dddddd;fillColor=#ffffff;shadow=1;strokeWidth=1;rounded=1;absoluteArcSize=1;arcSize=2;fontSize=11;fontColor=#9E9E9E;align=left;html=1;" vertex="1" parent="In5vsR27y8G3yN-AkZjQ-1094">
          <mxGeometry x="970" y="180" width="130" height="96" as="geometry" />
        </mxCell>
        <mxCell id="In5vsR27y8G3yN-AkZjQ-1007" value="&lt;div&gt;&lt;span style=&quot;color: rgb(51 , 0 , 0)&quot;&gt;&lt;br&gt;&lt;/span&gt;&lt;/div&gt;&lt;div&gt;&lt;span style=&quot;color: rgb(51 , 0 , 0)&quot;&gt;10.41.0.1 /24&lt;/span&gt;&lt;br&gt;&lt;/div&gt;&lt;div&gt;&lt;span style=&quot;color: rgb(51 , 0 , 0)&quot;&gt;&lt;br&gt;&lt;/span&gt;&lt;/div&gt;&lt;div style=&quot;text-align: center&quot;&gt;&lt;span style=&quot;color: rgb(51 , 0 , 0)&quot;&gt;&amp;nbsp;VSR 1008&lt;/span&gt;&lt;br&gt;&lt;/div&gt;&lt;div&gt;&lt;font color=&quot;#330000&quot;&gt;&lt;br&gt;&lt;/font&gt;&lt;/div&gt;&lt;div style=&quot;text-align: right&quot;&gt;&lt;font color=&quot;#330000&quot;&gt;&amp;nbsp; &amp;nbsp; &amp;nbsp; &amp;nbsp; &amp;nbsp; &amp;nbsp; &amp;nbsp; &amp;nbsp; &amp;nbsp; &amp;nbsp; &amp;nbsp; &amp;nbsp; &amp;nbsp; &amp;nbsp; 10.41.1.1 /24&amp;nbsp;&lt;/font&gt;&lt;/div&gt;&lt;div&gt;&lt;br&gt;&lt;/div&gt;" style="strokeColor=#dddddd;fillColor=#ffffff;shadow=1;strokeWidth=1;rounded=1;absoluteArcSize=1;arcSize=2;fontSize=11;fontColor=#9E9E9E;align=left;html=1;" vertex="1" parent="In5vsR27y8G3yN-AkZjQ-1094">
          <mxGeometry x="1530" y="276" width="160" height="94" as="geometry" />
        </mxCell>
        <mxCell id="In5vsR27y8G3yN-AkZjQ-1010" style="edgeStyle=orthogonalEdgeStyle;rounded=0;elbow=vertical;html=1;labelBackgroundColor=none;startFill=1;startSize=4;endArrow=blockThin;endFill=1;endSize=4;jettySize=auto;orthogonalLoop=1;strokeColor=#4284F3;strokeWidth=2;fontSize=12;fontColor=#000000;align=left;dashed=0;exitX=1;exitY=0.75;exitDx=0;exitDy=0;" edge="1" parent="In5vsR27y8G3yN-AkZjQ-1094" source="In5vsR27y8G3yN-AkZjQ-999">
          <mxGeometry relative="1" as="geometry">
            <Array as="points">
              <mxPoint x="1370" y="301" />
              <mxPoint x="1370" y="301" />
            </Array>
            <mxPoint x="1010" y="325" as="sourcePoint" />
            <mxPoint x="1530" y="300" as="targetPoint" />
          </mxGeometry>
        </mxCell>
        <mxCell id="In5vsR27y8G3yN-AkZjQ-1011" value="" style="edgeStyle=orthogonalEdgeStyle;rounded=0;elbow=vertical;html=1;labelBackgroundColor=none;startFill=1;startSize=4;endArrow=none;endFill=0;endSize=4;jettySize=auto;orthogonalLoop=1;strokeColor=#4284F3;strokeWidth=2;fontSize=12;fontColor=#000000;align=left;dashed=0;exitX=0.5;exitY=1;exitDx=0;exitDy=0;" edge="1" parent="In5vsR27y8G3yN-AkZjQ-1094" source="In5vsR27y8G3yN-AkZjQ-1006">
          <mxGeometry relative="1" as="geometry">
            <Array as="points">
              <mxPoint x="1035" y="300" />
              <mxPoint x="1035" y="300" />
            </Array>
            <mxPoint x="1170" y="354" as="sourcePoint" />
            <mxPoint x="1035" y="300" as="targetPoint" />
          </mxGeometry>
        </mxCell>
        <mxCell id="In5vsR27y8G3yN-AkZjQ-1017" value="&lt;div&gt;&lt;font color=&quot;#330000&quot;&gt;ad2016.cloudcoe.com&amp;nbsp;&lt;/font&gt;&lt;/div&gt;&lt;div&gt;&lt;font color=&quot;#330000&quot;&gt;---&lt;/font&gt;&lt;/div&gt;&lt;div&gt;&lt;font color=&quot;#330000&quot;&gt;ACTIVE DIRECTORY&lt;/font&gt;&lt;/div&gt;&lt;div&gt;&lt;font color=&quot;#330000&quot;&gt;---&lt;/font&gt;&lt;span style=&quot;color: rgb(51 , 0 , 0)&quot;&gt;&amp;nbsp;&lt;/span&gt;&lt;/div&gt;&lt;div&gt;&lt;span style=&quot;color: rgb(51 , 0 , 0)&quot;&gt;10.41.0.254 /24&amp;nbsp;&lt;/span&gt;&lt;br&gt;&lt;/div&gt;&lt;div&gt;&lt;font color=&quot;#330000&quot;&gt;Gateway 10.41.0.1&amp;nbsp;&lt;/font&gt;&lt;/div&gt;" style="strokeColor=#dddddd;fillColor=#ffffff;shadow=1;strokeWidth=1;rounded=1;absoluteArcSize=1;arcSize=2;fontSize=11;fontColor=#9E9E9E;align=left;html=1;" vertex="1" parent="In5vsR27y8G3yN-AkZjQ-1094">
          <mxGeometry x="1110" y="180" width="130" height="96" as="geometry" />
        </mxCell>
        <mxCell id="In5vsR27y8G3yN-AkZjQ-1018" value="" style="edgeStyle=orthogonalEdgeStyle;rounded=0;elbow=vertical;html=1;labelBackgroundColor=none;startFill=1;startSize=4;endArrow=none;endFill=0;endSize=4;jettySize=auto;orthogonalLoop=1;strokeColor=#4284F3;strokeWidth=2;fontSize=12;fontColor=#000000;align=left;dashed=0;exitX=0.5;exitY=1;exitDx=0;exitDy=0;" edge="1" parent="In5vsR27y8G3yN-AkZjQ-1094" source="In5vsR27y8G3yN-AkZjQ-1017">
          <mxGeometry relative="1" as="geometry">
            <Array as="points">
              <mxPoint x="1175" y="300" />
              <mxPoint x="1175" y="300" />
            </Array>
            <mxPoint x="1310" y="354" as="sourcePoint" />
            <mxPoint x="1175" y="300" as="targetPoint" />
          </mxGeometry>
        </mxCell>
        <mxCell id="In5vsR27y8G3yN-AkZjQ-1019" value="&lt;div&gt;&lt;font color=&quot;#330000&quot;&gt;hpeinstaller.cloudcoe.com&amp;nbsp;&lt;/font&gt;&lt;/div&gt;&lt;div&gt;&lt;font color=&quot;#330000&quot;&gt;---&lt;/font&gt;&lt;/div&gt;&lt;div&gt;&lt;font color=&quot;#330000&quot;&gt;CENTOS 8&lt;/font&gt;&lt;/div&gt;&lt;div&gt;&lt;font color=&quot;#330000&quot;&gt;---&lt;/font&gt;&lt;span style=&quot;color: rgb(51 , 0 , 0)&quot;&gt;&amp;nbsp;&lt;/span&gt;&lt;/div&gt;&lt;div&gt;&lt;span style=&quot;color: rgb(51 , 0 , 0)&quot;&gt;10.41.0.30 /24&amp;nbsp;&lt;/span&gt;&lt;br&gt;&lt;/div&gt;&lt;div&gt;&lt;font color=&quot;#330000&quot;&gt;Gateway 10.41.0.1&amp;nbsp;&lt;/font&gt;&lt;/div&gt;" style="strokeColor=#dddddd;fillColor=#ffffff;shadow=1;strokeWidth=1;rounded=1;absoluteArcSize=1;arcSize=2;fontSize=11;fontColor=#9E9E9E;align=left;html=1;" vertex="1" parent="In5vsR27y8G3yN-AkZjQ-1094">
          <mxGeometry x="1251" y="180" width="139" height="96" as="geometry" />
        </mxCell>
        <mxCell id="In5vsR27y8G3yN-AkZjQ-1020" value="" style="edgeStyle=orthogonalEdgeStyle;rounded=0;elbow=vertical;html=1;labelBackgroundColor=none;startFill=1;startSize=4;endArrow=none;endFill=0;endSize=4;jettySize=auto;orthogonalLoop=1;strokeColor=#4284F3;strokeWidth=2;fontSize=12;fontColor=#000000;align=left;dashed=0;exitX=0.5;exitY=1;exitDx=0;exitDy=0;" edge="1" parent="In5vsR27y8G3yN-AkZjQ-1094" source="In5vsR27y8G3yN-AkZjQ-1019">
          <mxGeometry relative="1" as="geometry">
            <Array as="points">
              <mxPoint x="1316" y="300" />
              <mxPoint x="1316" y="300" />
            </Array>
            <mxPoint x="1451" y="354" as="sourcePoint" />
            <mxPoint x="1316" y="300" as="targetPoint" />
          </mxGeometry>
        </mxCell>
        <mxCell id="In5vsR27y8G3yN-AkZjQ-1023" value="&lt;div&gt;&lt;font color=&quot;#330000&quot;&gt;rhelnode1.cloudcoe.com&amp;nbsp;&lt;/font&gt;&lt;/div&gt;&lt;div&gt;&lt;font color=&quot;#330000&quot;&gt;---&lt;/font&gt;&lt;/div&gt;&lt;div&gt;&lt;div&gt;&lt;span style=&quot;color: rgb(51 , 0 , 0)&quot;&gt;RHEL8.2 - 10.41.0.71 /24&amp;nbsp;&lt;/span&gt;&lt;br&gt;&lt;/div&gt;&lt;/div&gt;" style="strokeColor=#dddddd;fillColor=#ffffff;shadow=1;strokeWidth=1;rounded=1;absoluteArcSize=1;arcSize=2;fontSize=11;fontColor=#9E9E9E;align=left;html=1;" vertex="1" parent="In5vsR27y8G3yN-AkZjQ-1094">
          <mxGeometry x="410" y="400" width="150" height="50" as="geometry" />
        </mxCell>
        <mxCell id="In5vsR27y8G3yN-AkZjQ-1024" value="&lt;div&gt;&lt;font color=&quot;#330000&quot;&gt;rhelnode5.cloudcoe.com&amp;nbsp;&lt;/font&gt;&lt;/div&gt;&lt;div&gt;&lt;font color=&quot;#330000&quot;&gt;---&lt;/font&gt;&lt;/div&gt;&lt;div&gt;&lt;div&gt;&lt;span style=&quot;color: rgb(51 , 0 , 0)&quot;&gt;RHEL8.2 -10.41.0.75 /24&amp;nbsp;&lt;/span&gt;&lt;br&gt;&lt;/div&gt;&lt;/div&gt;" style="strokeColor=#dddddd;fillColor=#ffffff;shadow=1;strokeWidth=1;rounded=1;absoluteArcSize=1;arcSize=2;fontSize=11;fontColor=#9E9E9E;align=left;html=1;" vertex="1" parent="In5vsR27y8G3yN-AkZjQ-1094">
          <mxGeometry x="409" y="460" width="150" height="50" as="geometry" />
        </mxCell>
        <mxCell id="In5vsR27y8G3yN-AkZjQ-1025" value="&lt;div&gt;&lt;font color=&quot;#330000&quot;&gt;rhelnode8.cloudcoe.com&amp;nbsp;&lt;/font&gt;&lt;/div&gt;&lt;div&gt;&lt;font color=&quot;#330000&quot;&gt;---&lt;/font&gt;&lt;/div&gt;&lt;div&gt;&lt;div&gt;&lt;span style=&quot;color: rgb(51 , 0 , 0)&quot;&gt;RHEL8.2 - 10.41.0.78 /24&amp;nbsp;&lt;/span&gt;&lt;br&gt;&lt;/div&gt;&lt;/div&gt;" style="strokeColor=#dddddd;fillColor=#ffffff;shadow=1;strokeWidth=1;rounded=1;absoluteArcSize=1;arcSize=2;fontSize=11;fontColor=#9E9E9E;align=left;html=1;" vertex="1" parent="In5vsR27y8G3yN-AkZjQ-1094">
          <mxGeometry x="918" y="460" width="150" height="50" as="geometry" />
        </mxCell>
        <mxCell id="In5vsR27y8G3yN-AkZjQ-1026" value="&lt;div&gt;&lt;font color=&quot;#330000&quot;&gt;rhelnode4.cloudcoe.com&amp;nbsp;&lt;/font&gt;&lt;/div&gt;&lt;div&gt;&lt;font color=&quot;#330000&quot;&gt;---&lt;/font&gt;&lt;/div&gt;&lt;div&gt;&lt;div&gt;&lt;span style=&quot;color: rgb(51 , 0 , 0)&quot;&gt;RHEL8.2 - 10.41.0.74 /24&amp;nbsp;&lt;/span&gt;&lt;br&gt;&lt;/div&gt;&lt;/div&gt;" style="strokeColor=#dddddd;fillColor=#ffffff;shadow=1;strokeWidth=1;rounded=1;absoluteArcSize=1;arcSize=2;fontSize=11;fontColor=#9E9E9E;align=left;html=1;" vertex="1" parent="In5vsR27y8G3yN-AkZjQ-1094">
          <mxGeometry x="918" y="400" width="150" height="50" as="geometry" />
        </mxCell>
        <mxCell id="In5vsR27y8G3yN-AkZjQ-1027" value="&lt;div&gt;&lt;font color=&quot;#330000&quot;&gt;rhelnode7.cloudcoe.com&amp;nbsp;&lt;/font&gt;&lt;/div&gt;&lt;div&gt;&lt;font color=&quot;#330000&quot;&gt;---&lt;/font&gt;&lt;/div&gt;&lt;div&gt;&lt;div&gt;&lt;span style=&quot;color: rgb(51 , 0 , 0)&quot;&gt;RHEL8.2 - 10.41.0.77 /24&amp;nbsp;&lt;/span&gt;&lt;br&gt;&lt;/div&gt;&lt;/div&gt;" style="strokeColor=#dddddd;fillColor=#ffffff;shadow=1;strokeWidth=1;rounded=1;absoluteArcSize=1;arcSize=2;fontSize=11;fontColor=#9E9E9E;align=left;html=1;" vertex="1" parent="In5vsR27y8G3yN-AkZjQ-1094">
          <mxGeometry x="749" y="460" width="150" height="50" as="geometry" />
        </mxCell>
        <mxCell id="In5vsR27y8G3yN-AkZjQ-1028" value="&lt;div&gt;&lt;font color=&quot;#330000&quot;&gt;rhelnode6.cloudcoe.com&amp;nbsp;&lt;/font&gt;&lt;/div&gt;&lt;div&gt;&lt;font color=&quot;#330000&quot;&gt;---&lt;/font&gt;&lt;/div&gt;&lt;div&gt;&lt;div&gt;&lt;span style=&quot;color: rgb(51 , 0 , 0)&quot;&gt;RHEL8.2 - 10.41.0.76 /24&amp;nbsp;&lt;/span&gt;&lt;br&gt;&lt;/div&gt;&lt;/div&gt;" style="strokeColor=#dddddd;fillColor=#ffffff;shadow=1;strokeWidth=1;rounded=1;absoluteArcSize=1;arcSize=2;fontSize=11;fontColor=#9E9E9E;align=left;html=1;" vertex="1" parent="In5vsR27y8G3yN-AkZjQ-1094">
          <mxGeometry x="580" y="460" width="150" height="50" as="geometry" />
        </mxCell>
        <mxCell id="In5vsR27y8G3yN-AkZjQ-1029" value="&lt;div&gt;&lt;font color=&quot;#330000&quot;&gt;rhelnode2.cloudcoe.com&amp;nbsp;&lt;/font&gt;&lt;/div&gt;&lt;div&gt;&lt;font color=&quot;#330000&quot;&gt;---&lt;/font&gt;&lt;/div&gt;&lt;div&gt;&lt;div&gt;&lt;span style=&quot;color: rgb(51 , 0 , 0)&quot;&gt;RHEL8.2 - 10.41.0.72 /24&amp;nbsp;&lt;/span&gt;&lt;br&gt;&lt;/div&gt;&lt;/div&gt;" style="strokeColor=#dddddd;fillColor=#ffffff;shadow=1;strokeWidth=1;rounded=1;absoluteArcSize=1;arcSize=2;fontSize=11;fontColor=#9E9E9E;align=left;html=1;" vertex="1" parent="In5vsR27y8G3yN-AkZjQ-1094">
          <mxGeometry x="580" y="400" width="150" height="50" as="geometry" />
        </mxCell>
        <mxCell id="In5vsR27y8G3yN-AkZjQ-1030" value="&lt;div&gt;&lt;font color=&quot;#330000&quot;&gt;rhelnode3.cloudcoe.com&amp;nbsp;&lt;/font&gt;&lt;/div&gt;&lt;div&gt;&lt;font color=&quot;#330000&quot;&gt;---&lt;/font&gt;&lt;/div&gt;&lt;div&gt;&lt;div&gt;&lt;span style=&quot;color: rgb(51 , 0 , 0)&quot;&gt;RHEL8.2 - 10.41.0.73 /24&amp;nbsp;&lt;/span&gt;&lt;br&gt;&lt;/div&gt;&lt;/div&gt;" style="strokeColor=#dddddd;fillColor=#ffffff;shadow=1;strokeWidth=1;rounded=1;absoluteArcSize=1;arcSize=2;fontSize=11;fontColor=#9E9E9E;align=left;html=1;" vertex="1" parent="In5vsR27y8G3yN-AkZjQ-1094">
          <mxGeometry x="749" y="400" width="150" height="50" as="geometry" />
        </mxCell>
        <mxCell id="997" value="&lt;font color=&quot;#ffffff&quot;&gt;DATA FABRIC SERVERS&lt;/font&gt;" style="rounded=1;absoluteArcSize=1;arcSize=2;html=1;strokeColor=none;gradientColor=none;shadow=0;dashed=0;fontSize=12;fontColor=#9E9E9E;align=center;verticalAlign=top;spacing=10;spacingTop=-4;fillColor=#000000;" parent="In5vsR27y8G3yN-AkZjQ-1094" vertex="1">
          <mxGeometry x="650" y="360" width="190" height="30" as="geometry" />
        </mxCell>
        <mxCell id="In5vsR27y8G3yN-AkZjQ-1031" value="" style="edgeStyle=orthogonalEdgeStyle;rounded=0;elbow=vertical;html=1;labelBackgroundColor=none;startFill=1;startSize=4;endArrow=none;endFill=0;endSize=4;jettySize=auto;orthogonalLoop=1;strokeColor=#4284F3;strokeWidth=2;fontSize=12;fontColor=#000000;align=left;dashed=0;entryX=0.952;entryY=-0.003;entryDx=0;entryDy=0;entryPerimeter=0;" edge="1" parent="In5vsR27y8G3yN-AkZjQ-1094" target="2mOgIgbufrFKnN0tF16E-1092">
          <mxGeometry relative="1" as="geometry">
            <Array as="points">
              <mxPoint x="1057" y="300" />
            </Array>
            <mxPoint x="1057" y="300" as="sourcePoint" />
            <mxPoint x="1110" y="344" as="targetPoint" />
          </mxGeometry>
        </mxCell>
        <mxCell id="In5vsR27y8G3yN-AkZjQ-1032" value="" style="fillColor=#FFF4C3;strokeColor=none;shadow=0;gradientColor=none;fontSize=14;align=left;spacing=10;fontColor=#717171;9E9E9E;verticalAlign=top;spacingTop=-4;fontStyle=0;spacingLeft=40;html=1;" vertex="1" parent="In5vsR27y8G3yN-AkZjQ-1094">
          <mxGeometry x="399" y="530" width="1021" height="136" as="geometry" />
        </mxCell>
        <mxCell id="In5vsR27y8G3yN-AkZjQ-1033" value="&lt;div&gt;&lt;font color=&quot;#330000&quot;&gt;master0.cloudcoe.com&amp;nbsp;&lt;/font&gt;&lt;/div&gt;&lt;div&gt;&lt;font color=&quot;#330000&quot;&gt;Ubuntu -&amp;nbsp;&lt;/font&gt;&lt;span style=&quot;color: rgb(51 , 0 , 0)&quot;&gt;10.41.0.100 /24&amp;nbsp;&lt;/span&gt;&lt;/div&gt;&lt;div&gt;&lt;span style=&quot;color: rgb(51 , 0 , 0)&quot;&gt;Ansible install machine&lt;/span&gt;&lt;/div&gt;" style="strokeColor=#dddddd;fillColor=#ffffff;shadow=1;strokeWidth=1;rounded=1;absoluteArcSize=1;arcSize=2;fontSize=11;fontColor=#9E9E9E;align=left;html=1;" vertex="1" parent="In5vsR27y8G3yN-AkZjQ-1094">
          <mxGeometry x="410" y="546" width="150" height="50" as="geometry" />
        </mxCell>
        <mxCell id="In5vsR27y8G3yN-AkZjQ-1034" value="&lt;div&gt;&lt;font color=&quot;#330000&quot;&gt;agent1.cloudcoe.com&amp;nbsp;&lt;/font&gt;&lt;/div&gt;&lt;div&gt;&lt;font color=&quot;#330000&quot;&gt;---&lt;/font&gt;&lt;/div&gt;&lt;div&gt;&lt;div&gt;&lt;div&gt;&lt;font color=&quot;#330000&quot;&gt;Ubuntu -&amp;nbsp;&lt;/font&gt;&lt;span style=&quot;color: rgb(51 , 0 , 0)&quot;&gt;10.41.0.104 /24&amp;nbsp;&lt;/span&gt;&lt;/div&gt;&lt;/div&gt;&lt;/div&gt;" style="strokeColor=#dddddd;fillColor=#ffffff;shadow=1;strokeWidth=1;rounded=1;absoluteArcSize=1;arcSize=2;fontSize=11;fontColor=#9E9E9E;align=left;html=1;" vertex="1" parent="In5vsR27y8G3yN-AkZjQ-1094">
          <mxGeometry x="409" y="606" width="150" height="50" as="geometry" />
        </mxCell>
        <mxCell id="In5vsR27y8G3yN-AkZjQ-1036" value="&lt;div&gt;&lt;font color=&quot;#330000&quot;&gt;master3.cloudcoe.com&amp;nbsp;&lt;/font&gt;&lt;/div&gt;&lt;div&gt;&lt;font color=&quot;#330000&quot;&gt;---&lt;/font&gt;&lt;/div&gt;&lt;div&gt;&lt;div&gt;&lt;font color=&quot;#330000&quot;&gt;Ubuntu -&amp;nbsp;&lt;/font&gt;&lt;span style=&quot;color: rgb(51 , 0 , 0)&quot;&gt;10.41.0.103 /24&amp;nbsp;&lt;/span&gt;&lt;br&gt;&lt;/div&gt;&lt;/div&gt;" style="strokeColor=#dddddd;fillColor=#ffffff;shadow=1;strokeWidth=1;rounded=1;absoluteArcSize=1;arcSize=2;fontSize=11;fontColor=#9E9E9E;align=left;html=1;" vertex="1" parent="In5vsR27y8G3yN-AkZjQ-1094">
          <mxGeometry x="918" y="546" width="150" height="50" as="geometry" />
        </mxCell>
        <mxCell id="In5vsR27y8G3yN-AkZjQ-1039" value="&lt;div&gt;&lt;font color=&quot;#330000&quot;&gt;master1.cloudcoe.com&amp;nbsp;&lt;/font&gt;&lt;/div&gt;&lt;div&gt;&lt;font color=&quot;#330000&quot;&gt;---&lt;/font&gt;&lt;/div&gt;&lt;div&gt;&lt;div&gt;&lt;font color=&quot;#330000&quot;&gt;Ubuntu -&amp;nbsp;&lt;/font&gt;&lt;span style=&quot;color: rgb(51 , 0 , 0)&quot;&gt;10.41.0.101 /24&amp;nbsp;&lt;/span&gt;&lt;br&gt;&lt;/div&gt;&lt;/div&gt;" style="strokeColor=#dddddd;fillColor=#ffffff;shadow=1;strokeWidth=1;rounded=1;absoluteArcSize=1;arcSize=2;fontSize=11;fontColor=#9E9E9E;align=left;html=1;" vertex="1" parent="In5vsR27y8G3yN-AkZjQ-1094">
          <mxGeometry x="580" y="546" width="150" height="50" as="geometry" />
        </mxCell>
        <mxCell id="In5vsR27y8G3yN-AkZjQ-1040" value="&lt;div&gt;&lt;font color=&quot;#330000&quot;&gt;master2.cloudcoe.com&amp;nbsp;&lt;/font&gt;&lt;/div&gt;&lt;div&gt;&lt;font color=&quot;#330000&quot;&gt;---&lt;/font&gt;&lt;/div&gt;&lt;div&gt;&lt;div&gt;&lt;font color=&quot;#330000&quot;&gt;Ubuntu -&amp;nbsp;&lt;/font&gt;&lt;span style=&quot;color: rgb(51 , 0 , 0)&quot;&gt;10.41.0.102 /24&amp;nbsp;&lt;/span&gt;&lt;br&gt;&lt;/div&gt;&lt;/div&gt;" style="strokeColor=#dddddd;fillColor=#ffffff;shadow=1;strokeWidth=1;rounded=1;absoluteArcSize=1;arcSize=2;fontSize=11;fontColor=#9E9E9E;align=left;html=1;" vertex="1" parent="In5vsR27y8G3yN-AkZjQ-1094">
          <mxGeometry x="749" y="546" width="150" height="50" as="geometry" />
        </mxCell>
        <mxCell id="In5vsR27y8G3yN-AkZjQ-1041" value="&lt;font color=&quot;#ffffff&quot;&gt;AKS KUBERNETES SERVERS&lt;/font&gt;" style="rounded=1;absoluteArcSize=1;arcSize=2;html=1;strokeColor=none;gradientColor=none;shadow=0;dashed=0;fontSize=12;fontColor=#9E9E9E;align=center;verticalAlign=top;spacing=10;spacingTop=-4;fillColor=#000000;" vertex="1" parent="In5vsR27y8G3yN-AkZjQ-1094">
          <mxGeometry x="1140" y="560" width="200" height="30" as="geometry" />
        </mxCell>
        <mxCell id="In5vsR27y8G3yN-AkZjQ-1044" value="&lt;div&gt;&lt;font color=&quot;#330000&quot;&gt;agent5.cloudcoe.com&amp;nbsp;&lt;/font&gt;&lt;/div&gt;&lt;div&gt;&lt;font color=&quot;#330000&quot;&gt;---&lt;/font&gt;&lt;/div&gt;&lt;div&gt;&lt;div&gt;&lt;div&gt;&lt;font color=&quot;#330000&quot;&gt;Ubuntu -&amp;nbsp;&lt;/font&gt;&lt;span style=&quot;color: rgb(51 , 0 , 0)&quot;&gt;10.41.0.108 /24&amp;nbsp;&lt;/span&gt;&lt;/div&gt;&lt;/div&gt;&lt;/div&gt;" style="strokeColor=#dddddd;fillColor=#ffffff;shadow=1;strokeWidth=1;rounded=1;absoluteArcSize=1;arcSize=2;fontSize=11;fontColor=#9E9E9E;align=left;html=1;" vertex="1" parent="In5vsR27y8G3yN-AkZjQ-1094">
          <mxGeometry x="1089" y="606" width="150" height="50" as="geometry" />
        </mxCell>
        <mxCell id="In5vsR27y8G3yN-AkZjQ-1045" value="&lt;div&gt;&lt;font color=&quot;#330000&quot;&gt;agent2.cloudcoe.com&amp;nbsp;&lt;/font&gt;&lt;/div&gt;&lt;div&gt;&lt;font color=&quot;#330000&quot;&gt;---&lt;/font&gt;&lt;/div&gt;&lt;div&gt;&lt;div&gt;&lt;div&gt;&lt;font color=&quot;#330000&quot;&gt;Ubuntu -&amp;nbsp;&lt;/font&gt;&lt;span style=&quot;color: rgb(51 , 0 , 0)&quot;&gt;10.41.0.105 /24&amp;nbsp;&lt;/span&gt;&lt;/div&gt;&lt;/div&gt;&lt;/div&gt;" style="strokeColor=#dddddd;fillColor=#ffffff;shadow=1;strokeWidth=1;rounded=1;absoluteArcSize=1;arcSize=2;fontSize=11;fontColor=#9E9E9E;align=left;html=1;" vertex="1" parent="In5vsR27y8G3yN-AkZjQ-1094">
          <mxGeometry x="580" y="606" width="150" height="50" as="geometry" />
        </mxCell>
        <mxCell id="In5vsR27y8G3yN-AkZjQ-1046" value="&lt;div&gt;&lt;font color=&quot;#330000&quot;&gt;agent4.cloudcoe.com&amp;nbsp;&lt;/font&gt;&lt;/div&gt;&lt;div&gt;&lt;font color=&quot;#330000&quot;&gt;---&lt;/font&gt;&lt;/div&gt;&lt;div&gt;&lt;div&gt;&lt;div&gt;&lt;font color=&quot;#330000&quot;&gt;Ubuntu -&amp;nbsp;&lt;/font&gt;&lt;span style=&quot;color: rgb(51 , 0 , 0)&quot;&gt;10.41.0.107 /24&amp;nbsp;&lt;/span&gt;&lt;/div&gt;&lt;/div&gt;&lt;/div&gt;" style="strokeColor=#dddddd;fillColor=#ffffff;shadow=1;strokeWidth=1;rounded=1;absoluteArcSize=1;arcSize=2;fontSize=11;fontColor=#9E9E9E;align=left;html=1;" vertex="1" parent="In5vsR27y8G3yN-AkZjQ-1094">
          <mxGeometry x="918" y="606" width="150" height="50" as="geometry" />
        </mxCell>
        <mxCell id="In5vsR27y8G3yN-AkZjQ-1047" value="&lt;div&gt;&lt;font color=&quot;#330000&quot;&gt;agent3.cloudcoe.com&amp;nbsp;&lt;/font&gt;&lt;/div&gt;&lt;div&gt;&lt;font color=&quot;#330000&quot;&gt;---&lt;/font&gt;&lt;/div&gt;&lt;div&gt;&lt;div&gt;&lt;div&gt;&lt;font color=&quot;#330000&quot;&gt;Ubuntu -&amp;nbsp;&lt;/font&gt;&lt;span style=&quot;color: rgb(51 , 0 , 0)&quot;&gt;10.41.0.106 /24&amp;nbsp;&lt;/span&gt;&lt;/div&gt;&lt;/div&gt;&lt;/div&gt;" style="strokeColor=#dddddd;fillColor=#ffffff;shadow=1;strokeWidth=1;rounded=1;absoluteArcSize=1;arcSize=2;fontSize=11;fontColor=#9E9E9E;align=left;html=1;" vertex="1" parent="In5vsR27y8G3yN-AkZjQ-1094">
          <mxGeometry x="749" y="606" width="150" height="50" as="geometry" />
        </mxCell>
        <mxCell id="In5vsR27y8G3yN-AkZjQ-1048" value="&lt;div&gt;&lt;font color=&quot;#330000&quot;&gt;agent6.cloudcoe.com&amp;nbsp;&lt;/font&gt;&lt;/div&gt;&lt;div&gt;&lt;font color=&quot;#330000&quot;&gt;---&lt;/font&gt;&lt;/div&gt;&lt;div&gt;&lt;div&gt;&lt;div&gt;&lt;font color=&quot;#330000&quot;&gt;Ubuntu -&amp;nbsp;&lt;/font&gt;&lt;span style=&quot;color: rgb(51 , 0 , 0)&quot;&gt;10.41.0.109 /24&amp;nbsp;&lt;/span&gt;&lt;/div&gt;&lt;/div&gt;&lt;/div&gt;" style="strokeColor=#dddddd;fillColor=#ffffff;shadow=1;strokeWidth=1;rounded=1;absoluteArcSize=1;arcSize=2;fontSize=11;fontColor=#9E9E9E;align=left;html=1;" vertex="1" parent="In5vsR27y8G3yN-AkZjQ-1094">
          <mxGeometry x="1260" y="606" width="150" height="50" as="geometry" />
        </mxCell>
        <mxCell id="In5vsR27y8G3yN-AkZjQ-1049" value="" style="fillColor=#FFF4C3;strokeColor=none;shadow=0;gradientColor=none;fontSize=14;align=left;spacing=10;fontColor=#717171;9E9E9E;verticalAlign=top;spacingTop=-4;fontStyle=0;spacingLeft=40;html=1;" vertex="1" parent="In5vsR27y8G3yN-AkZjQ-1094">
          <mxGeometry x="399" y="680" width="1021" height="270" as="geometry" />
        </mxCell>
        <mxCell id="In5vsR27y8G3yN-AkZjQ-1050" value="&lt;div&gt;&lt;font color=&quot;#330000&quot;&gt;controller1.cloudcoe.com&amp;nbsp;&lt;/font&gt;&lt;/div&gt;&lt;div&gt;&lt;font color=&quot;#330000&quot;&gt;---&lt;/font&gt;&lt;/div&gt;&lt;div&gt;&lt;font color=&quot;#330000&quot;&gt;Ubuntu -&amp;nbsp;&lt;/font&gt;&lt;span style=&quot;color: rgb(51 , 0 , 0)&quot;&gt;10.41.0.31 /24&amp;nbsp;&lt;/span&gt;&lt;/div&gt;" style="strokeColor=#dddddd;fillColor=#ffffff;shadow=1;strokeWidth=1;rounded=1;absoluteArcSize=1;arcSize=2;fontSize=11;fontColor=#9E9E9E;align=left;html=1;" vertex="1" parent="In5vsR27y8G3yN-AkZjQ-1094">
          <mxGeometry x="410" y="696" width="150" height="50" as="geometry" />
        </mxCell>
        <mxCell id="In5vsR27y8G3yN-AkZjQ-1051" value="&lt;div&gt;&lt;font color=&quot;#330000&quot;&gt;gateway1.cloudcoe.com&amp;nbsp;&lt;/font&gt;&lt;/div&gt;&lt;div&gt;&lt;font color=&quot;#330000&quot;&gt;---&lt;/font&gt;&lt;/div&gt;&lt;div&gt;&lt;div&gt;&lt;div&gt;&lt;font color=&quot;#330000&quot;&gt;Ubuntu -&amp;nbsp;&lt;/font&gt;&lt;span style=&quot;color: rgb(51 , 0 , 0)&quot;&gt;10.41.0.41 /24&amp;nbsp;&lt;/span&gt;&lt;/div&gt;&lt;/div&gt;&lt;/div&gt;" style="strokeColor=#dddddd;fillColor=#ffffff;shadow=1;strokeWidth=1;rounded=1;absoluteArcSize=1;arcSize=2;fontSize=11;fontColor=#9E9E9E;align=left;html=1;" vertex="1" parent="In5vsR27y8G3yN-AkZjQ-1094">
          <mxGeometry x="409" y="756" width="150" height="50" as="geometry" />
        </mxCell>
        <mxCell id="In5vsR27y8G3yN-AkZjQ-1052" value="&lt;div&gt;&lt;font color=&quot;#330000&quot;&gt;controller4.cloudcoe.com&amp;nbsp;&lt;/font&gt;&lt;/div&gt;&lt;div&gt;&lt;font color=&quot;#330000&quot;&gt;---&lt;/font&gt;&lt;/div&gt;&lt;div&gt;&lt;div&gt;&lt;font color=&quot;#330000&quot;&gt;Ubuntu -&amp;nbsp;&lt;/font&gt;&lt;span style=&quot;color: rgb(51 , 0 , 0)&quot;&gt;10.41.0.34 /24&amp;nbsp;&lt;/span&gt;&lt;br&gt;&lt;/div&gt;&lt;/div&gt;" style="strokeColor=#dddddd;fillColor=#ffffff;shadow=1;strokeWidth=1;rounded=1;absoluteArcSize=1;arcSize=2;fontSize=11;fontColor=#9E9E9E;align=left;html=1;" vertex="1" parent="In5vsR27y8G3yN-AkZjQ-1094">
          <mxGeometry x="918" y="696" width="150" height="50" as="geometry" />
        </mxCell>
        <mxCell id="In5vsR27y8G3yN-AkZjQ-1053" value="&lt;div&gt;&lt;font color=&quot;#330000&quot;&gt;controller2.cloudcoe.com&amp;nbsp;&lt;/font&gt;&lt;/div&gt;&lt;div&gt;&lt;font color=&quot;#330000&quot;&gt;---&lt;/font&gt;&lt;/div&gt;&lt;div&gt;&lt;div&gt;&lt;font color=&quot;#330000&quot;&gt;Ubuntu -&amp;nbsp;&lt;/font&gt;&lt;span style=&quot;color: rgb(51 , 0 , 0)&quot;&gt;10.41.0.32 /24&amp;nbsp;&lt;/span&gt;&lt;br&gt;&lt;/div&gt;&lt;/div&gt;" style="strokeColor=#dddddd;fillColor=#ffffff;shadow=1;strokeWidth=1;rounded=1;absoluteArcSize=1;arcSize=2;fontSize=11;fontColor=#9E9E9E;align=left;html=1;" vertex="1" parent="In5vsR27y8G3yN-AkZjQ-1094">
          <mxGeometry x="580" y="696" width="150" height="50" as="geometry" />
        </mxCell>
        <mxCell id="In5vsR27y8G3yN-AkZjQ-1054" value="&lt;div&gt;&lt;font color=&quot;#330000&quot;&gt;controller3.cloudcoe.com&amp;nbsp;&lt;/font&gt;&lt;/div&gt;&lt;div&gt;&lt;font color=&quot;#330000&quot;&gt;---&lt;/font&gt;&lt;/div&gt;&lt;div&gt;&lt;div&gt;&lt;font color=&quot;#330000&quot;&gt;Ubuntu -&amp;nbsp;&lt;/font&gt;&lt;span style=&quot;color: rgb(51 , 0 , 0)&quot;&gt;10.41.0.33 /24&amp;nbsp;&lt;/span&gt;&lt;br&gt;&lt;/div&gt;&lt;/div&gt;" style="strokeColor=#dddddd;fillColor=#ffffff;shadow=1;strokeWidth=1;rounded=1;absoluteArcSize=1;arcSize=2;fontSize=11;fontColor=#9E9E9E;align=left;html=1;" vertex="1" parent="In5vsR27y8G3yN-AkZjQ-1094">
          <mxGeometry x="749" y="696" width="150" height="50" as="geometry" />
        </mxCell>
        <mxCell id="In5vsR27y8G3yN-AkZjQ-1055" value="&lt;font color=&quot;#ffffff&quot;&gt;EZMERAL SERVERS&lt;/font&gt;" style="rounded=1;absoluteArcSize=1;arcSize=2;html=1;strokeColor=none;gradientColor=none;shadow=0;dashed=0;fontSize=12;fontColor=#9E9E9E;align=center;verticalAlign=top;spacing=10;spacingTop=-4;fillColor=#000000;" vertex="1" parent="In5vsR27y8G3yN-AkZjQ-1094">
          <mxGeometry x="1140" y="740" width="200" height="30" as="geometry" />
        </mxCell>
        <mxCell id="In5vsR27y8G3yN-AkZjQ-1057" value="&lt;div&gt;&lt;font color=&quot;#330000&quot;&gt;gateway2.cloudcoe.com&amp;nbsp;&lt;/font&gt;&lt;/div&gt;&lt;div&gt;&lt;font color=&quot;#330000&quot;&gt;---&lt;/font&gt;&lt;/div&gt;&lt;div&gt;&lt;div&gt;&lt;div&gt;&lt;font color=&quot;#330000&quot;&gt;Ubuntu -&amp;nbsp;&lt;/font&gt;&lt;span style=&quot;color: rgb(51 , 0 , 0)&quot;&gt;10.41.0.42 /24&amp;nbsp;&lt;/span&gt;&lt;/div&gt;&lt;/div&gt;&lt;/div&gt;" style="strokeColor=#dddddd;fillColor=#ffffff;shadow=1;strokeWidth=1;rounded=1;absoluteArcSize=1;arcSize=2;fontSize=11;fontColor=#9E9E9E;align=left;html=1;" vertex="1" parent="In5vsR27y8G3yN-AkZjQ-1094">
          <mxGeometry x="580" y="756" width="150" height="50" as="geometry" />
        </mxCell>
        <mxCell id="In5vsR27y8G3yN-AkZjQ-1059" value="&lt;div&gt;&lt;font color=&quot;#330000&quot;&gt;gateway3.cloudcoe.com&amp;nbsp;&lt;/font&gt;&lt;/div&gt;&lt;div&gt;&lt;font color=&quot;#330000&quot;&gt;---&lt;/font&gt;&lt;/div&gt;&lt;div&gt;&lt;div&gt;&lt;div&gt;&lt;font color=&quot;#330000&quot;&gt;Centos 7 -&amp;nbsp;&lt;/font&gt;&lt;span style=&quot;color: rgb(51 , 0 , 0)&quot;&gt;10.41.0.43 /24&amp;nbsp;&lt;/span&gt;&lt;/div&gt;&lt;/div&gt;&lt;/div&gt;" style="strokeColor=#dddddd;fillColor=#ffffff;shadow=1;strokeWidth=1;rounded=1;absoluteArcSize=1;arcSize=2;fontSize=11;fontColor=#9E9E9E;align=left;html=1;" vertex="1" parent="In5vsR27y8G3yN-AkZjQ-1094">
          <mxGeometry x="749" y="756" width="150" height="50" as="geometry" />
        </mxCell>
        <mxCell id="In5vsR27y8G3yN-AkZjQ-1073" value="&lt;div&gt;&lt;font color=&quot;#330000&quot;&gt;worker6.cloudcoe.com&amp;nbsp;&lt;/font&gt;&lt;/div&gt;&lt;div&gt;&lt;font color=&quot;#330000&quot;&gt;---&lt;/font&gt;&lt;/div&gt;&lt;div&gt;&lt;font color=&quot;#330000&quot;&gt;Centos 7 -&amp;nbsp;&lt;/font&gt;&lt;span style=&quot;color: rgb(51 , 0 , 0)&quot;&gt;10.41.0.56 /24&amp;nbsp;&lt;/span&gt;&lt;/div&gt;" style="strokeColor=#dddddd;fillColor=#ffffff;shadow=1;strokeWidth=1;rounded=1;absoluteArcSize=1;arcSize=2;fontSize=11;fontColor=#9E9E9E;align=left;html=1;" vertex="1" parent="In5vsR27y8G3yN-AkZjQ-1094">
          <mxGeometry x="1259" y="820" width="150" height="50" as="geometry" />
        </mxCell>
        <mxCell id="In5vsR27y8G3yN-AkZjQ-1078" value="&lt;div&gt;&lt;font color=&quot;#330000&quot;&gt;worker12.cloudcoe.com&amp;nbsp;&lt;/font&gt;&lt;/div&gt;&lt;div&gt;&lt;font color=&quot;#330000&quot;&gt;---&lt;/font&gt;&lt;/div&gt;&lt;div&gt;&lt;font color=&quot;#330000&quot;&gt;Centos 7 -&amp;nbsp;&lt;/font&gt;&lt;span style=&quot;color: rgb(51 , 0 , 0)&quot;&gt;10.41.0.62 /24&amp;nbsp;&lt;/span&gt;&lt;/div&gt;" style="strokeColor=#dddddd;fillColor=#ffffff;shadow=1;strokeWidth=1;rounded=1;absoluteArcSize=1;arcSize=2;fontSize=11;fontColor=#9E9E9E;align=left;html=1;" vertex="1" parent="In5vsR27y8G3yN-AkZjQ-1094">
          <mxGeometry x="1259" y="880" width="150" height="50" as="geometry" />
        </mxCell>
        <mxCell id="In5vsR27y8G3yN-AkZjQ-1079" value="&lt;div&gt;&lt;font color=&quot;#330000&quot;&gt;worker11.cloudcoe.com&amp;nbsp;&lt;/font&gt;&lt;/div&gt;&lt;div&gt;&lt;font color=&quot;#330000&quot;&gt;---&lt;/font&gt;&lt;/div&gt;&lt;div&gt;&lt;font color=&quot;#330000&quot;&gt;Centos 7 -&amp;nbsp;&lt;/font&gt;&lt;span style=&quot;color: rgb(51 , 0 , 0)&quot;&gt;10.41.0.61 /24&amp;nbsp;&lt;/span&gt;&lt;/div&gt;" style="strokeColor=#dddddd;fillColor=#ffffff;shadow=1;strokeWidth=1;rounded=1;absoluteArcSize=1;arcSize=2;fontSize=11;fontColor=#9E9E9E;align=left;html=1;" vertex="1" parent="In5vsR27y8G3yN-AkZjQ-1094">
          <mxGeometry x="1089" y="880" width="150" height="50" as="geometry" />
        </mxCell>
        <mxCell id="In5vsR27y8G3yN-AkZjQ-1080" value="&lt;div&gt;&lt;font color=&quot;#330000&quot;&gt;worker5.cloudcoe.com&amp;nbsp;&lt;/font&gt;&lt;/div&gt;&lt;div&gt;&lt;font color=&quot;#330000&quot;&gt;---&lt;/font&gt;&lt;/div&gt;&lt;div&gt;&lt;font color=&quot;#330000&quot;&gt;Centos 7 -&amp;nbsp;&lt;/font&gt;&lt;span style=&quot;color: rgb(51 , 0 , 0)&quot;&gt;10.41.0.55 /24&amp;nbsp;&lt;/span&gt;&lt;/div&gt;" style="strokeColor=#dddddd;fillColor=#ffffff;shadow=1;strokeWidth=1;rounded=1;absoluteArcSize=1;arcSize=2;fontSize=11;fontColor=#9E9E9E;align=left;html=1;" vertex="1" parent="In5vsR27y8G3yN-AkZjQ-1094">
          <mxGeometry x="1089" y="820" width="150" height="50" as="geometry" />
        </mxCell>
        <mxCell id="In5vsR27y8G3yN-AkZjQ-1081" value="&lt;div&gt;&lt;font color=&quot;#330000&quot;&gt;worker10.cloudcoe.com&amp;nbsp;&lt;/font&gt;&lt;/div&gt;&lt;div&gt;&lt;font color=&quot;#330000&quot;&gt;---&lt;/font&gt;&lt;/div&gt;&lt;div&gt;&lt;font color=&quot;#330000&quot;&gt;Centos 7 -&amp;nbsp;&lt;/font&gt;&lt;span style=&quot;color: rgb(51 , 0 , 0)&quot;&gt;10.41.0.60 /24&amp;nbsp;&lt;/span&gt;&lt;/div&gt;" style="strokeColor=#dddddd;fillColor=#ffffff;shadow=1;strokeWidth=1;rounded=1;absoluteArcSize=1;arcSize=2;fontSize=11;fontColor=#9E9E9E;align=left;html=1;" vertex="1" parent="In5vsR27y8G3yN-AkZjQ-1094">
          <mxGeometry x="918" y="880" width="150" height="50" as="geometry" />
        </mxCell>
        <mxCell id="In5vsR27y8G3yN-AkZjQ-1082" value="&lt;div&gt;&lt;font color=&quot;#330000&quot;&gt;worker4.cloudcoe.com&amp;nbsp;&lt;/font&gt;&lt;/div&gt;&lt;div&gt;&lt;font color=&quot;#330000&quot;&gt;---&lt;/font&gt;&lt;/div&gt;&lt;div&gt;&lt;font color=&quot;#330000&quot;&gt;Centos 7 -&amp;nbsp;&lt;/font&gt;&lt;span style=&quot;color: rgb(51 , 0 , 0)&quot;&gt;10.41.0.54 /24&amp;nbsp;&lt;/span&gt;&lt;/div&gt;" style="strokeColor=#dddddd;fillColor=#ffffff;shadow=1;strokeWidth=1;rounded=1;absoluteArcSize=1;arcSize=2;fontSize=11;fontColor=#9E9E9E;align=left;html=1;" vertex="1" parent="In5vsR27y8G3yN-AkZjQ-1094">
          <mxGeometry x="918" y="820" width="150" height="50" as="geometry" />
        </mxCell>
        <mxCell id="In5vsR27y8G3yN-AkZjQ-1083" value="&lt;div&gt;&lt;font color=&quot;#330000&quot;&gt;worker9.cloudcoe.com&amp;nbsp;&lt;/font&gt;&lt;/div&gt;&lt;div&gt;&lt;font color=&quot;#330000&quot;&gt;---&lt;/font&gt;&lt;/div&gt;&lt;div&gt;&lt;font color=&quot;#330000&quot;&gt;Centos 7 -&amp;nbsp;&lt;/font&gt;&lt;span style=&quot;color: rgb(51 , 0 , 0)&quot;&gt;10.41.0.59 /24&amp;nbsp;&lt;/span&gt;&lt;/div&gt;" style="strokeColor=#dddddd;fillColor=#ffffff;shadow=1;strokeWidth=1;rounded=1;absoluteArcSize=1;arcSize=2;fontSize=11;fontColor=#9E9E9E;align=left;html=1;" vertex="1" parent="In5vsR27y8G3yN-AkZjQ-1094">
          <mxGeometry x="749" y="880" width="150" height="50" as="geometry" />
        </mxCell>
        <mxCell id="In5vsR27y8G3yN-AkZjQ-1084" value="&lt;div&gt;&lt;font color=&quot;#330000&quot;&gt;worker3.cloudcoe.com&amp;nbsp;&lt;/font&gt;&lt;/div&gt;&lt;div&gt;&lt;font color=&quot;#330000&quot;&gt;---&lt;/font&gt;&lt;/div&gt;&lt;div&gt;&lt;font color=&quot;#330000&quot;&gt;Centos 7 -&amp;nbsp;&lt;/font&gt;&lt;span style=&quot;color: rgb(51 , 0 , 0)&quot;&gt;10.41.0.53 /24&amp;nbsp;&lt;/span&gt;&lt;/div&gt;" style="strokeColor=#dddddd;fillColor=#ffffff;shadow=1;strokeWidth=1;rounded=1;absoluteArcSize=1;arcSize=2;fontSize=11;fontColor=#9E9E9E;align=left;html=1;" vertex="1" parent="In5vsR27y8G3yN-AkZjQ-1094">
          <mxGeometry x="749" y="820" width="150" height="50" as="geometry" />
        </mxCell>
        <mxCell id="In5vsR27y8G3yN-AkZjQ-1085" value="&lt;div&gt;&lt;font color=&quot;#330000&quot;&gt;worker2.cloudcoe.com&amp;nbsp;&lt;/font&gt;&lt;/div&gt;&lt;div&gt;&lt;font color=&quot;#330000&quot;&gt;---&lt;/font&gt;&lt;/div&gt;&lt;div&gt;&lt;font color=&quot;#330000&quot;&gt;Centos 7 -&amp;nbsp;&lt;/font&gt;&lt;span style=&quot;color: rgb(51 , 0 , 0)&quot;&gt;10.41.0.52 /24&amp;nbsp;&lt;/span&gt;&lt;/div&gt;" style="strokeColor=#dddddd;fillColor=#ffffff;shadow=1;strokeWidth=1;rounded=1;absoluteArcSize=1;arcSize=2;fontSize=11;fontColor=#9E9E9E;align=left;html=1;" vertex="1" parent="In5vsR27y8G3yN-AkZjQ-1094">
          <mxGeometry x="580" y="820" width="150" height="50" as="geometry" />
        </mxCell>
        <mxCell id="In5vsR27y8G3yN-AkZjQ-1086" value="&lt;div&gt;&lt;font color=&quot;#330000&quot;&gt;worker8.cloudcoe.com&amp;nbsp;&lt;/font&gt;&lt;/div&gt;&lt;div&gt;&lt;font color=&quot;#330000&quot;&gt;---&lt;/font&gt;&lt;/div&gt;&lt;div&gt;&lt;font color=&quot;#330000&quot;&gt;Centos 7 -&amp;nbsp;&lt;/font&gt;&lt;span style=&quot;color: rgb(51 , 0 , 0)&quot;&gt;10.41.0.58 /24&amp;nbsp;&lt;/span&gt;&lt;/div&gt;" style="strokeColor=#dddddd;fillColor=#ffffff;shadow=1;strokeWidth=1;rounded=1;absoluteArcSize=1;arcSize=2;fontSize=11;fontColor=#9E9E9E;align=left;html=1;" vertex="1" parent="In5vsR27y8G3yN-AkZjQ-1094">
          <mxGeometry x="580" y="880" width="150" height="50" as="geometry" />
        </mxCell>
        <mxCell id="In5vsR27y8G3yN-AkZjQ-1087" value="&lt;div&gt;&lt;font color=&quot;#330000&quot;&gt;worker7.cloudcoe.com&amp;nbsp;&lt;/font&gt;&lt;/div&gt;&lt;div&gt;&lt;font color=&quot;#330000&quot;&gt;---&lt;/font&gt;&lt;/div&gt;&lt;div&gt;&lt;font color=&quot;#330000&quot;&gt;Centos 7 -&amp;nbsp;&lt;/font&gt;&lt;span style=&quot;color: rgb(51 , 0 , 0)&quot;&gt;10.41.0.57 /24&amp;nbsp;&lt;/span&gt;&lt;/div&gt;" style="strokeColor=#dddddd;fillColor=#ffffff;shadow=1;strokeWidth=1;rounded=1;absoluteArcSize=1;arcSize=2;fontSize=11;fontColor=#9E9E9E;align=left;html=1;" vertex="1" parent="In5vsR27y8G3yN-AkZjQ-1094">
          <mxGeometry x="409" y="880" width="150" height="50" as="geometry" />
        </mxCell>
        <mxCell id="In5vsR27y8G3yN-AkZjQ-1088" value="&lt;div&gt;&lt;font color=&quot;#330000&quot;&gt;worker1.cloudcoe.com&amp;nbsp;&lt;/font&gt;&lt;/div&gt;&lt;div&gt;&lt;font color=&quot;#330000&quot;&gt;---&lt;/font&gt;&lt;/div&gt;&lt;div&gt;&lt;font color=&quot;#330000&quot;&gt;Centos 7 -&amp;nbsp;&lt;/font&gt;&lt;span style=&quot;color: rgb(51 , 0 , 0)&quot;&gt;10.41.0.51 /24&amp;nbsp;&lt;/span&gt;&lt;/div&gt;" style="strokeColor=#dddddd;fillColor=#ffffff;shadow=1;strokeWidth=1;rounded=1;absoluteArcSize=1;arcSize=2;fontSize=11;fontColor=#9E9E9E;align=left;html=1;" vertex="1" parent="In5vsR27y8G3yN-AkZjQ-1094">
          <mxGeometry x="410" y="820" width="150" height="50" as="geometry" />
        </mxCell>
        <mxCell id="In5vsR27y8G3yN-AkZjQ-1090" value="" style="edgeStyle=orthogonalEdgeStyle;rounded=0;elbow=vertical;html=1;labelBackgroundColor=none;startFill=1;startSize=4;endArrow=none;endFill=0;endSize=4;jettySize=auto;orthogonalLoop=1;strokeColor=#4284F3;strokeWidth=2;fontSize=12;fontColor=#000000;align=left;dashed=0;entryX=1;entryY=0.5;entryDx=0;entryDy=0;" edge="1" parent="In5vsR27y8G3yN-AkZjQ-1094" target="In5vsR27y8G3yN-AkZjQ-1049">
          <mxGeometry relative="1" as="geometry">
            <Array as="points">
              <mxPoint x="1470" y="300" />
              <mxPoint x="1470" y="815" />
            </Array>
            <mxPoint x="1470" y="300" as="sourcePoint" />
            <mxPoint x="1484" y="827" as="targetPoint" />
          </mxGeometry>
        </mxCell>
        <mxCell id="In5vsR27y8G3yN-AkZjQ-1091" style="edgeStyle=orthogonalEdgeStyle;rounded=0;elbow=vertical;html=1;labelBackgroundColor=none;startFill=1;startSize=4;endArrow=blockThin;endFill=1;endSize=4;jettySize=auto;orthogonalLoop=1;strokeColor=#4284F3;strokeWidth=2;fontSize=12;fontColor=#000000;align=left;dashed=0;exitX=1;exitY=0.75;exitDx=0;exitDy=0;entryX=-0.021;entryY=0.855;entryDx=0;entryDy=0;entryPerimeter=0;" edge="1" parent="In5vsR27y8G3yN-AkZjQ-1094" target="In5vsR27y8G3yN-AkZjQ-1092">
          <mxGeometry relative="1" as="geometry">
            <Array as="points" />
            <mxPoint x="1690" y="350" as="sourcePoint" />
            <mxPoint x="1710" y="350" as="targetPoint" />
          </mxGeometry>
        </mxCell>
        <mxCell id="In5vsR27y8G3yN-AkZjQ-1092" value="&lt;div&gt;&lt;font color=&quot;#330000&quot;&gt;&amp;nbsp; &amp;nbsp; &amp;nbsp; &amp;nbsp; &amp;nbsp; &amp;nbsp; &amp;nbsp; &amp;nbsp;10.41.30.x /19&lt;/font&gt;&lt;/div&gt;&lt;div&gt;&lt;div&gt;&lt;font color=&quot;#330000&quot;&gt;&amp;nbsp; &amp;nbsp; &amp;nbsp; &amp;nbsp; &amp;nbsp; &amp;nbsp; &amp;nbsp; &amp;nbsp; &amp;nbsp; &amp;nbsp; &amp;nbsp;DHCP&lt;/font&gt;&lt;/div&gt;&lt;div&gt;&lt;font color=&quot;#330000&quot;&gt;&lt;span&gt;---&amp;nbsp; &amp;nbsp;&lt;/span&gt;&lt;br&gt;&lt;/font&gt;&lt;/div&gt;&lt;/div&gt;&lt;div&gt;&lt;div&gt;&lt;font color=&quot;#330000&quot;&gt;&amp;nbsp; &amp;nbsp; &amp;nbsp; &amp;nbsp; &amp;nbsp; &amp;nbsp; &amp;nbsp; &amp;nbsp; proxy.hpe.lan&lt;/font&gt;&lt;/div&gt;&lt;/div&gt;&lt;div&gt;&lt;font color=&quot;#330000&quot;&gt;---&lt;br&gt;&lt;/font&gt;&lt;/div&gt;&lt;div&gt;&lt;div&gt;&lt;font color=&quot;#330000&quot;&gt;&amp;nbsp; &amp;nbsp; &amp;nbsp; TRANSPARENT PROXY&lt;/font&gt;&lt;/div&gt;&lt;/div&gt;&lt;div&gt;&lt;font color=&quot;#330000&quot;&gt;---&lt;/font&gt;&lt;/div&gt;&lt;div&gt;&lt;font color=&quot;#330000&quot;&gt;&lt;br&gt;&lt;/font&gt;&lt;/div&gt;&lt;div&gt;&lt;font color=&quot;#330000&quot;&gt;10.41.1.2 /24&amp;nbsp;&lt;/font&gt;&lt;/div&gt;&lt;div&gt;&lt;br&gt;&lt;/div&gt;" style="strokeColor=#dddddd;fillColor=#ffffff;shadow=1;strokeWidth=1;rounded=1;absoluteArcSize=1;arcSize=2;fontSize=11;fontColor=#9E9E9E;align=left;html=1;" vertex="1" parent="In5vsR27y8G3yN-AkZjQ-1094">
          <mxGeometry x="1720" y="230.5" width="160" height="140" as="geometry" />
        </mxCell>
        <mxCell id="In5vsR27y8G3yN-AkZjQ-1093" style="edgeStyle=orthogonalEdgeStyle;rounded=0;elbow=vertical;html=1;labelBackgroundColor=none;startFill=1;startSize=4;endArrow=blockThin;endFill=1;endSize=4;jettySize=auto;orthogonalLoop=1;strokeColor=#4284F3;strokeWidth=2;fontSize=12;fontColor=#000000;align=left;dashed=0;exitX=0.5;exitY=0;exitDx=0;exitDy=0;" edge="1" parent="In5vsR27y8G3yN-AkZjQ-1094" source="In5vsR27y8G3yN-AkZjQ-1092">
          <mxGeometry relative="1" as="geometry">
            <Array as="points">
              <mxPoint x="1800" y="150" />
            </Array>
            <mxPoint x="1700" y="360" as="sourcePoint" />
            <mxPoint x="1850" y="150" as="targetPoint" />
          </mxGeometry>
        </mxCell>
        <mxCell id="2mOgIgbufrFKnN0tF16E-1109" value="All internet traffic is routed to ALF transparent proxy server" style="rounded=1;absoluteArcSize=1;arcSize=2;html=1;strokeColor=none;gradientColor=none;shadow=0;dashed=0;fontSize=12;fontColor=#9E9E9E;align=left;verticalAlign=top;spacing=10;spacingTop=-4;fillColor=#F1F8E9;" parent="In5vsR27y8G3yN-AkZjQ-1094" vertex="1">
          <mxGeometry x="1635" y="184" width="330" height="30" as="geometry" />
        </mxCell>
        <mxCell id="In5vsR27y8G3yN-AkZjQ-1096" value="" style="edgeStyle=orthogonalEdgeStyle;rounded=0;elbow=vertical;html=1;labelBackgroundColor=none;startFill=1;startSize=4;endArrow=none;endFill=0;endSize=4;jettySize=auto;orthogonalLoop=1;strokeColor=#4284F3;strokeWidth=2;fontSize=12;fontColor=#000000;align=left;dashed=0;entryX=0.823;entryY=0.006;entryDx=0;entryDy=0;entryPerimeter=0;" edge="1" parent="1" target="In5vsR27y8G3yN-AkZjQ-1032">
          <mxGeometry relative="1" as="geometry">
            <Array as="points">
              <mxPoint x="1240" y="531" />
            </Array>
            <mxPoint x="1240" y="300" as="sourcePoint" />
            <mxPoint x="1100" y="359" as="targetPoint" />
          </mxGeometry>
        </mxCell>
      </root>
    </mxGraphModel>
  </diagram>
</mxfile>
